<svg version="1.1" xmlns="http://www.w3.org/2000/svg" style="display: block;" viewBox="0 0 2048 417" width="1748" height="356" preserveAspectRatio="none">
<path transform="translate(0,0)" fill="rgb(255,255,255)" d="M 1405.86 13.6368 C 1481.13 8.75623 1546.11 65.8151 1551 141.088 C 1555.89 216.361 1498.85 281.349 1423.57 286.251 C 1348.29 291.154 1283.28 234.09 1278.39 158.803 C 1273.5 83.5146 1330.57 18.5183 1405.86 13.6368 z M 1429.62 246.954 C 1482.85 238.854 1519.47 189.203 1511.49 135.962 C 1503.51 82.7222 1453.95 45.986 1400.69 53.842 C 1347.26 61.7234 1310.37 111.487 1318.38 164.9 C 1326.38 218.313 1376.23 255.08 1429.62 246.954 z"/>
<path transform="translate(0,0)" fill="rgb(255,255,255)" d="M 611.715 14.4413 C 613.131 13.9691 624.013 13.8337 625.954 13.9042 C 673.47 15.6286 699.115 33.8133 730.374 65.5986 C 721.622 74.4054 713.425 83.8689 704.207 93.0637 C 666.924 54.9805 621.66 35.3536 572.62 65.5042 C 500.015 110.143 513.704 228.242 599.208 248.541 C 622.381 253.86 646.716 249.824 666.932 237.31 C 689.07 223.649 697.292 204.927 703.098 180.526 C 683.075 179.944 660.933 180.4 640.75 180.431 L 638.189 179.826 C 636.241 175.797 637.376 149.388 637.526 142.985 L 745.03 143.005 C 745.365 159.468 745.398 174.361 741.19 190.466 C 727.473 242.96 690.372 280.193 635.456 285.837 C 555.981 294.004 496.249 245.465 487.471 166.354 C 483.256 129.67 493.718 92.807 516.576 63.8063 C 541.157 33.1493 573.403 18.6456 611.715 14.4413 z"/>
<path transform="translate(0,0)" fill="rgb(255,255,255)" d="M 235.719 18.8801 L 272.946 18.9036 C 273.763 76.0443 271.687 133.479 273.695 190.516 C 274.921 225.332 294.666 251.878 331.167 251.84 C 397.584 251.77 387.892 172.996 387.882 128.094 L 387.97 19.9942 L 427.392 20.0004 C 428.974 33.1544 428.921 42.274 428.908 55.5 L 428.947 162.938 C 428.703 195.048 427.225 236.195 402.004 260.451 C 364.55 296.473 292.82 296.966 257.754 257.063 C 244.64 242.14 236.267 218.962 235.686 198.851 C 235.11 178.883 235.472 158.26 235.47 138.097 L 235.719 18.8801 z"/>
<path transform="translate(0,0)" fill="rgb(255,255,255)" d="M 1583.01 18.8706 L 1744.47 18.8977 C 1744.82 31.5259 1744.58 44.6271 1744.51 57.2984 L 1682.42 57.5483 C 1683.28 109.691 1682.47 164.164 1682.48 216.5 C 1682.55 238.396 1682.5 260.292 1682.33 282.187 L 1643.93 282.307 C 1642.85 208.393 1643.89 131.679 1643.88 57.5446 C 1624.17 57.024 1602.81 57.4177 1582.98 57.4617 L 1583.01 18.8706 z"/>
<path transform="translate(0,0)" fill="rgb(212,216,16)" d="M 823.801 18.9443 L 863.255 18.9143 C 862.216 105.021 862.851 194.884 863.312 281.069 L 823.854 281.069 L 823.801 18.9443 z"/>
<path transform="translate(0,0)" fill="rgb(212,216,16)" d="M 843.232 335.383 C 890.043 333.276 904.729 407.901 844.783 415.556 C 835.336 415.006 826.761 412.618 819.145 406.83 C 810.947 400.588 805.59 391.323 804.272 381.104 C 802.819 370.462 805.665 359.679 812.182 351.142 C 820.682 340.061 830.027 337.092 843.232 335.383 z"/>
<path transform="translate(0,0)" fill="rgb(255,255,255)" d="M 1441.9 335.379 C 1453.53 332.526 1468.69 343.066 1476.28 350.847 L 1467.46 359.614 C 1451.42 342.815 1428.27 341.019 1418.76 365.105 C 1415.7 372.886 1415.87 381.566 1419.23 389.221 C 1425.08 402.3 1440.49 407.571 1453.89 402.042 C 1461.38 398.955 1464.56 391.448 1467.18 384.238 C 1461.57 384.268 1453.41 384.537 1448.1 383.753 C 1448.06 380.326 1448.21 377.257 1448.4 373.834 C 1451.07 371.627 1474.47 372.579 1479.77 372.634 C 1480.22 383.772 1479.16 392.561 1472.5 401.842 C 1460.45 418.615 1435.09 419.974 1419.3 408.21 C 1410.97 401.932 1405.5 392.582 1404.11 382.247 C 1400.49 356.538 1417.07 338.756 1441.9 335.379 z"/>
<path transform="translate(0,0)" fill="rgb(255,255,255)" d="M 1119.02 337.384 L 1131.8 337.343 L 1131.89 346.75 C 1131.98 363.244 1133.42 384.134 1128.56 399.75 C 1122.75 418.471 1094.56 420.963 1081.44 407.65 C 1078.55 404.755 1076.48 401.147 1075.44 397.192 C 1073.09 388.148 1074.41 348.739 1074.56 337.353 L 1086.01 337.497 C 1086.31 349.585 1082.49 393.532 1091.6 399.889 C 1126.33 424.138 1119.09 354.819 1119.02 337.384 z"/>
<path transform="translate(0,0)" fill="rgb(255,255,255)" d="M 1027.27 335.27 C 1037.48 333.599 1045.84 342.002 1052.01 348.577 C 1048.89 350.598 1044.26 352.91 1040.89 354.719 L 1040.77 354.594 C 1034.82 348.623 1023.08 340.202 1018.95 353.427 C 1018.79 366.202 1041.03 365.074 1051.93 382.999 C 1053.03 405.274 1044.34 419.195 1019.91 415.177 C 1018.83 414.81 1017.76 414.389 1016.72 413.915 C 1006.75 409.346 1003.85 402.028 1000.31 392.625 L 1012.03 389.622 C 1015.4 398.837 1020.23 404.566 1031.19 403.772 C 1037.89 403.286 1041.04 396.501 1039.75 390.384 C 1037.43 379.371 1021.68 377.507 1013.92 371.309 C 1010.65 368.92 1006.04 364.583 1005.84 360.027 C 1005.14 343.77 1013.64 337.51 1027.27 335.27 z"/>
<path transform="translate(0,0)" fill="rgb(255,255,255)" d="M 763.615 335.229 C 769.863 334.193 780.325 337.965 786.102 340.065 L 786.065 355.881 C 769.595 341.693 747.022 345.016 740.377 367.166 C 738.044 374.894 738.908 383.234 742.775 390.319 C 751.427 406.261 767.354 406.461 781.618 398.646 C 783.768 397.302 782.846 397.536 785.349 397.658 C 786.896 400.508 786.155 407.346 786.021 410.909 C 781.829 412.694 778.29 414.177 773.796 415.052 C 763.266 417.127 752.343 414.923 743.44 408.928 C 719.878 393.005 720.216 354.693 745.655 340.838 C 751.935 337.418 756.607 336.568 763.615 335.229 z"/>
<path transform="translate(0,0)" fill="rgb(255,255,255)" d="M 1203.39 337.371 C 1219.13 337.142 1235.36 337.354 1251.14 337.363 L 1251.17 349.015 L 1233.81 349.136 L 1233.83 398.5 L 1233.75 414.699 L 1220.93 414.829 L 1220.92 349.117 L 1203.35 349.077 L 1203.39 337.371 z"/>
<path transform="translate(0,0)" fill="rgb(255,255,255)" d="M 1160.05 337.361 L 1172.8 337.474 C 1173.23 358.857 1172.87 381.491 1172.89 402.973 L 1194.91 402.998 L 1195 414.694 L 1160 414.836 L 1160.05 337.361 z"/>
<path transform="translate(0,0)" fill="rgb(255,255,255)" d="M 1270.11 336.159 L 1282.9 336.178 C 1283.34 361.951 1282.94 388.837 1282.92 414.697 L 1270.07 414.864 L 1270.11 336.159 z"/>
<path transform="translate(0,0)" fill="rgb(255,255,255)" d="M 2048 166.51 C 2047.64 167.737 2047.46 169.479 2047.21 170.8 C 2043.73 189.84 2037.4 207.229 2026.94 223.604 C 2007.68 253.385 1977.47 274.392 1942.85 282.084 C 1905.77 290.45 1866.88 283.556 1834.94 262.952 C 1805.5 243.988 1784.84 214.062 1777.54 179.811 C 1769.86 143.281 1777.05 105.194 1797.52 73.9784 C 1816.63 45.1307 1846.3 24.9442 1880.15 17.7693 C 1953.29 2.30777 2025.48 42.5766 2044.14 116.187 C 2045.58 121.898 2046.78 127.694 2048 133.458 L 2048 166.51 z M 1925.61 247.03 C 1979 239.299 2016 189.725 2008.21 136.343 C 2000.43 82.9607 1950.82 46.0137 1897.44 53.8488 C 1844.14 61.6731 1807.26 111.199 1815.03 164.508 C 1822.8 217.816 1872.29 254.749 1925.61 247.03 z"/>
<path transform="translate(0,0)" fill="rgb(255,255,255)" d="M 1003.28 0 L 1004.35 0 C 1033.69 68.0287 1061.1 137.643 1090.7 205.469 C 1113.81 150.323 1139.69 95.8115 1163.19 40.7751 C 1168.66 27.977 1174.88 12.9915 1181.34 0.894948 C 1184.09 10.8534 1186.43 26.1962 1188.36 36.6689 L 1199.9 99.3908 C 1211.16 160.44 1223.16 222.252 1233.65 283.366 C 1220.9 283.668 1207.34 283.487 1194.52 283.541 C 1191.89 274.202 1186.21 239.873 1184.57 229.472 C 1179.09 194.642 1167.56 146.809 1167.97 112.259 C 1165.37 119.249 1162.03 126.702 1159.01 133.555 C 1135.03 188.017 1112.81 243.566 1088.41 297.815 L 1013.73 113.463 C 1014 136.31 1005.84 174.893 1001.25 197.766 C 995.552 225.876 990.021 254.02 984.653 282.194 L 945.309 282.253 L 981.413 105.682 C 988.433 71.1167 995.239 34.1488 1003.28 0 z"/>
<path transform="translate(0,0)" fill="rgb(255,255,255)" d="M 35.7001 201.13 C 43.5128 220.501 51.7941 238.313 72.6047 247.111 C 84.0152 251.935 96.8683 252.064 108.373 247.468 C 118.833 243.128 127.142 234.813 131.475 224.349 C 150.969 177.488 93.4674 159.111 60.9249 145.554 C 4.91454 122.221 2.70155 44.161 59.0311 20.9808 C 81.045 11.8663 105.774 11.8484 127.801 20.9312 C 147.478 29.2096 157.729 41.9705 170.305 58.3246 C 158.576 64.6048 146.952 71.0801 135.438 77.7476 C 125.483 64.7604 115.578 51.2642 98.1952 49.2453 C 89.5876 48.2456 76.3013 50.1685 70.1559 56.2565 C 40.9222 85.2172 65.0197 102.713 89.5809 114.08 C 132.752 134.06 180.771 154.599 174.334 210.904 C 168.48 260.51 126.988 291.905 77.649 285.898 C 38.4739 281.129 14.595 255.779 2.19106 219.47 C 1.56625 217.641 0.783963 215.281 0 213.543 L 0 208.722 C 12.2938 206.593 23.8444 203.349 35.7001 201.13 z"/>
<path transform="translate(0,0)" fill="rgb(255,255,255)" d="M 1312.4 331.598 C 1327.52 344.492 1338.47 355.666 1351.89 370.388 C 1356.48 375.42 1365.55 385.619 1370.23 389.993 C 1367.45 372.328 1368.36 355.207 1368.67 337.352 L 1381.18 337.47 C 1381.35 363.98 1381.37 390.49 1381.26 417 L 1379.6 417 C 1365.12 402.456 1338.14 375.328 1325.11 360.075 L 1325.03 414.647 L 1312.21 414.834 C 1312.18 388.068 1311.48 358.112 1312.4 331.598 z"/>
<path transform="translate(0,0)" fill="rgb(255,255,255)" d="M 911.853 331.548 C 923.681 342.849 935.205 354.464 946.411 366.382 C 952 372.361 962.953 385.004 968.309 389.917 C 965.966 371.679 966.549 355.768 966.82 337.358 L 979.304 337.463 C 979.623 363.974 979.69 390.488 979.504 417 L 977.707 417 C 960.489 399.562 940.42 376.771 923.233 360.162 L 923.116 414.657 L 911.61 414.817 C 911.576 388.192 910.841 357.883 911.853 331.548 z"/>
</svg>